<mxfile host="app.diagrams.net" modified="2024-05-12T22:06:31.255Z" agent="Mozilla/5.0 (Windows NT 10.0; Win64; x64) AppleWebKit/537.36 (KHTML, like Gecko) Chrome/124.0.0.0 Safari/537.36" etag="DSxezXAWc7W-_qsu4XL2" version="24.4.0" type="device">
  <diagram name="Page-1" id="b98fa263-6416-c6ec-5b7d-78bf54ef71d0">
    <mxGraphModel dx="2064" dy="1162" grid="1" gridSize="10" guides="1" tooltips="1" connect="1" arrows="1" fold="1" page="1" pageScale="1.5" pageWidth="1500" pageHeight="1000" background="none" math="0" shadow="0">
      <root>
        <mxCell id="0" style=";html=1;" />
        <mxCell id="1" style=";html=1;" parent="0" />
        <mxCell id="ayTLZbnIlNJXaFGoyUxJ-1" value="&lt;h1 style=&quot;text-align: justify; margin-top: 0px;&quot;&gt;&lt;span style=&quot;font-size: 36px;&quot;&gt;Tabla de Contenidos:&lt;/span&gt;&lt;/h1&gt;&lt;p style=&quot;text-align: justify;&quot;&gt;&lt;font style=&quot;font-size: 24px;&quot;&gt;1.0: &lt;u&gt;Login&lt;/u&gt;: Primera interfaz que se le presenta al usuario. Allí ha de introducir sus credenciales y, de ser correctas, se le rediccionará a su respectivo menú de opciones&lt;/font&gt;&lt;/p&gt;&lt;p style=&quot;text-align: justify;&quot;&gt;&lt;font style=&quot;font-size: 24px;&quot;&gt;&lt;br&gt;&lt;/font&gt;&lt;/p&gt;&lt;p style=&quot;text-align: justify;&quot;&gt;&lt;span style=&quot;font-size: 24px;&quot;&gt;2.0: &lt;u&gt;Interfaz de empleado&lt;/u&gt;: Menú de opciones disponibles para el empleado&lt;/span&gt;&lt;/p&gt;&lt;p style=&quot;text-align: justify;&quot;&gt;&lt;span style=&quot;font-size: 24px;&quot;&gt;&lt;br&gt;&lt;/span&gt;&lt;/p&gt;&lt;p style=&quot;text-align: justify;&quot;&gt;&lt;span style=&quot;font-size: 24px;&quot;&gt;3.0: &lt;u&gt;Interfaz de administrador&lt;/u&gt;: Menú de opciones disponibles para el administrador&lt;/span&gt;&lt;/p&gt;&lt;p style=&quot;text-align: justify;&quot;&gt;&lt;span style=&quot;font-size: 24px;&quot;&gt;&lt;br&gt;&lt;/span&gt;&lt;/p&gt;&lt;p style=&quot;text-align: justify;&quot;&gt;&lt;span style=&quot;font-size: 24px;&quot;&gt;4.0:&amp;nbsp; &lt;u&gt;Clientes&lt;/u&gt;: Listado de los clientes con un menú de opciones disponibles para el empleado&lt;/span&gt;&lt;/p&gt;&lt;p style=&quot;text-align: justify;&quot;&gt;&lt;span style=&quot;font-size: 24px;&quot;&gt;&lt;span style=&quot;white-space: pre;&quot;&gt;&#x9;&lt;/span&gt;4.1: &lt;u&gt;Agregar&lt;/u&gt;: Permite agregar un nuevo cliente al sistema&lt;br&gt;&lt;/span&gt;&lt;/p&gt;&lt;p style=&quot;text-align: justify;&quot;&gt;&lt;span style=&quot;font-size: 24px;&quot;&gt;&lt;span style=&quot;white-space: pre;&quot;&gt;&#x9;&lt;/span&gt;4.2: &lt;u&gt;Modificar&lt;/u&gt;: Permite modificar un cliente existente&lt;br&gt;&lt;/span&gt;&lt;/p&gt;&lt;p style=&quot;text-align: justify;&quot;&gt;&lt;br&gt;&lt;/p&gt;&lt;p style=&quot;text-align: justify;&quot;&gt;&lt;span style=&quot;font-size: 24px;&quot;&gt;5.0: &lt;u&gt;Transacciones&lt;/u&gt;: Menú de opciones disponibles para el administrador&lt;/span&gt;&lt;/p&gt;&lt;p style=&quot;text-align: justify;&quot;&gt;&lt;span style=&quot;font-size: 24px;&quot;&gt;&lt;span style=&quot;white-space: pre;&quot;&gt;&#x9;&lt;/span&gt;5.1: &lt;u&gt;Registrar Venta&lt;/u&gt;: Permite registrar una venta una vez realizada&lt;br&gt;&lt;/span&gt;&lt;/p&gt;&lt;p style=&quot;text-align: justify;&quot;&gt;&lt;span style=&quot;font-size: 24px;&quot;&gt;&lt;br&gt;&lt;/span&gt;&lt;/p&gt;&lt;p style=&quot;text-align: justify;&quot;&gt;&lt;span style=&quot;font-size: 24px;&quot;&gt;6.0: &lt;u&gt;Ayuda&lt;/u&gt;: Menú de opciones para orientación del uso y detalles del sistema&lt;/span&gt;&lt;/p&gt;&lt;p style=&quot;text-align: justify;&quot;&gt;&lt;span style=&quot;font-size: 24px;&quot;&gt;&lt;span style=&quot;white-space: pre;&quot;&gt;&#x9;&lt;/span&gt;6.1: &lt;u&gt;Acerca de:&lt;/u&gt;&amp;nbsp;Módulo de información de los desarrolladores y el sistema&lt;br&gt;&lt;/span&gt;&lt;/p&gt;&lt;p style=&quot;text-align: justify;&quot;&gt;&lt;span style=&quot;font-size: 24px;&quot;&gt;&lt;span style=&quot;white-space: pre;&quot;&gt;&#x9;&lt;/span&gt;6.2: &lt;u&gt;Manual de Usuario:&lt;/u&gt;&amp;nbsp;Documento de referencia acerca del uso del sistema&lt;br&gt;&lt;/span&gt;&lt;/p&gt;&lt;p style=&quot;text-align: justify;&quot;&gt;&lt;span style=&quot;font-size: 24px;&quot;&gt;&lt;span style=&quot;white-space: pre;&quot;&gt;&#x9;&lt;/span&gt;6.3: &lt;u&gt;Índices de Búsqueda&lt;/u&gt;; Permite realizar una búsqueda de manera más eficiente&lt;br&gt;&lt;/span&gt;&lt;/p&gt;&lt;p style=&quot;text-align: justify;&quot;&gt;&lt;span style=&quot;font-size: 24px;&quot;&gt;&lt;br&gt;&lt;/span&gt;&lt;/p&gt;&lt;p style=&quot;text-align: justify;&quot;&gt;&lt;span style=&quot;font-size: 24px;&quot;&gt;7.0: &lt;u&gt;Productos&lt;/u&gt;: Listado de productos en el inventario con sus respectivas operaciones disponibles&lt;/span&gt;&lt;/p&gt;&lt;p style=&quot;text-align: justify;&quot;&gt;&lt;span style=&quot;font-size: 24px;&quot;&gt;&lt;span style=&quot;white-space: pre;&quot;&gt;&#x9;&lt;/span&gt;7.1: &lt;u&gt;Agregar&lt;/u&gt;; Permite añadir un nuevo producto al stock&lt;br&gt;&lt;/span&gt;&lt;/p&gt;&lt;p style=&quot;text-align: justify;&quot;&gt;&lt;span style=&quot;font-size: 24px;&quot;&gt;&lt;span style=&quot;white-space: pre;&quot;&gt;&#x9;&lt;/span&gt;7.2: &lt;u&gt;Modificar&lt;/u&gt;: Permite realizar modificaciones a un producto existente&lt;/span&gt;&lt;/p&gt;&lt;p style=&quot;text-align: justify;&quot;&gt;&lt;br&gt;&lt;/p&gt;&lt;p style=&quot;text-align: justify;&quot;&gt;&lt;span style=&quot;font-size: 24px;&quot;&gt;9.0:&amp;nbsp;&lt;u&gt;Proveedores&lt;/u&gt;: Listado de proveedores de productos en el inventario con sus respectivas operaciones disponibles&lt;/span&gt;&lt;/p&gt;&lt;p style=&quot;text-align: justify;&quot;&gt;&lt;span style=&quot;font-size: 24px;&quot;&gt;&lt;span style=&quot;white-space: pre;&quot;&gt;&#x9;&lt;/span&gt;9.1:&amp;nbsp;&lt;u&gt;Agregar&lt;/u&gt;; Permite añadir un nuevo proveedor al stock&lt;br&gt;&lt;/span&gt;&lt;/p&gt;&lt;p style=&quot;text-align: justify;&quot;&gt;&lt;span style=&quot;font-size: 24px;&quot;&gt;&lt;span style=&quot;white-space: pre;&quot;&gt;&#x9;&lt;/span&gt;9.2:&amp;nbsp;&lt;u&gt;Modificar&lt;/u&gt;: Permite realizar modificaciones a un proveedor existente&lt;/span&gt;&lt;/p&gt;&lt;p style=&quot;text-align: justify;&quot;&gt;&lt;span style=&quot;font-size: 24px;&quot;&gt;&lt;br&gt;&lt;/span&gt;&lt;/p&gt;&lt;div style=&quot;text-align: justify;&quot;&gt;&lt;br&gt;&lt;/div&gt;&lt;div style=&quot;text-align: justify;&quot;&gt;&lt;span style=&quot;font-size: 24px;&quot;&gt;10.0: &lt;u&gt;Transacciones&lt;/u&gt;: Menú de opciones disponibles referentes a las transacciones realizadas (entrada y salida de productos)&lt;/span&gt;&lt;/div&gt;&lt;div style=&quot;text-align: justify;&quot;&gt;&lt;span style=&quot;font-size: 24px;&quot;&gt;&lt;span style=&quot;white-space: pre;&quot;&gt;&#x9;&lt;/span&gt;10.1:&amp;nbsp;&lt;u&gt;Registrar Venta&lt;/u&gt;: Permite añadir un registro de venta (salida) a la base de datos&lt;br&gt;&lt;/span&gt;&lt;/div&gt;&lt;div style=&quot;text-align: justify;&quot;&gt;&lt;span style=&quot;font-size: 24px;&quot;&gt;&lt;span style=&quot;white-space: pre;&quot;&gt;&#x9;&lt;/span&gt;10.2:&amp;nbsp;&lt;u&gt;Registrar Compra&lt;/u&gt;: Permite añadir un registro de compra (entrada) a la base de datos&lt;br&gt;&lt;/span&gt;&lt;/div&gt;&lt;div style=&quot;text-align: justify;&quot;&gt;&lt;span style=&quot;font-size: 24px;&quot;&gt;&lt;span style=&quot;white-space: pre;&quot;&gt;&#x9;&lt;/span&gt;10.3:&amp;nbsp;&lt;u&gt;Historial&lt;/u&gt;: Permite inspeccionar las transacciones realizadas previamente&lt;br&gt;&lt;/span&gt;&lt;/div&gt;&lt;div style=&quot;text-align: justify;&quot;&gt;&lt;span style=&quot;font-size: 24px;&quot;&gt;&lt;br&gt;&lt;/span&gt;&lt;/div&gt;&lt;div style=&quot;text-align: justify;&quot;&gt;&lt;span style=&quot;font-size: 24px;&quot;&gt;&lt;br&gt;&lt;/span&gt;&lt;/div&gt;&lt;div style=&quot;text-align: justify;&quot;&gt;&lt;span style=&quot;font-size: 24px;&quot;&gt;&lt;br&gt;&lt;/span&gt;&lt;/div&gt;&lt;div style=&quot;text-align: justify;&quot;&gt;&lt;span style=&quot;font-size: 24px;&quot;&gt;&lt;br&gt;&lt;/span&gt;&lt;/div&gt;&lt;div style=&quot;text-align: justify;&quot;&gt;&lt;span style=&quot;font-size: 24px;&quot;&gt;&lt;br&gt;&lt;/span&gt;&lt;/div&gt;&lt;div style=&quot;text-align: justify;&quot;&gt;&lt;span style=&quot;font-size: 24px;&quot;&gt;&lt;br&gt;&lt;/span&gt;&lt;/div&gt;&lt;div style=&quot;text-align: justify;&quot;&gt;&lt;span style=&quot;font-size: 24px;&quot;&gt;&lt;br&gt;&lt;/span&gt;&lt;/div&gt;&lt;div style=&quot;text-align: justify;&quot;&gt;&lt;span style=&quot;font-size: 24px;&quot;&gt;&lt;br&gt;&lt;/span&gt;&lt;/div&gt;&lt;div style=&quot;text-align: justify;&quot;&gt;&lt;span style=&quot;font-size: 24px;&quot;&gt;11.0: &lt;u&gt;Herramientas&lt;/u&gt;: Menú de opciones disponibles referentes al sistema en sí&lt;/span&gt;&lt;/div&gt;&lt;div style=&quot;text-align: justify;&quot;&gt;&lt;span style=&quot;font-size: 24px;&quot;&gt;&lt;span style=&quot;white-space: pre;&quot;&gt;&#x9;&lt;/span&gt;11.1: &lt;u&gt;Realizar Respaldo&lt;/u&gt;: Permite exportar la información almacenada en el sistema&lt;br&gt;&lt;/span&gt;&lt;/div&gt;&lt;div style=&quot;text-align: justify;&quot;&gt;&lt;span style=&quot;font-size: 24px;&quot;&gt;&lt;span style=&quot;white-space: pre;&quot;&gt;&#x9;&lt;/span&gt;11.2: &lt;u&gt;Agregar Usuario&lt;/u&gt;: Permite al administrador crear un nuevo usuario de empleado&lt;br&gt;&lt;/span&gt;&lt;/div&gt;&lt;div style=&quot;text-align: justify;&quot;&gt;&lt;span style=&quot;font-size: 24px;&quot;&gt;&lt;span style=&quot;white-space: pre;&quot;&gt;&#x9;&lt;/span&gt;11.3: &lt;u&gt;Eliminar Usuario&lt;/u&gt;: Permite al administrador eliminar un usuario existente&lt;br&gt;&lt;/span&gt;&lt;/div&gt;&lt;div style=&quot;text-align: justify;&quot;&gt;&lt;span style=&quot;font-size: 24px;&quot;&gt;&lt;span style=&quot;white-space: pre;&quot;&gt;&#x9;&lt;/span&gt;11.4: &lt;u&gt;Modificar Usuario&lt;/u&gt;: Permite al administrador editar un usuario existente&lt;/span&gt;&lt;/div&gt;&lt;div style=&quot;text-align: justify;&quot;&gt;&lt;span style=&quot;font-size: 24px; background-color: initial;&quot;&gt;&lt;span style=&quot;white-space: pre;&quot;&gt;&#x9;&lt;/span&gt;11.5: &lt;/span&gt;&lt;u style=&quot;font-size: 24px; background-color: initial;&quot;&gt;Recuperar Datos&lt;/u&gt;&lt;span style=&quot;font-size: 24px; background-color: initial;&quot;&gt;: Permite importar la información previamente exportada y reestablecerla en la base de datos&lt;/span&gt;&lt;/div&gt;&lt;p style=&quot;text-align: justify;&quot;&gt;&lt;span style=&quot;font-size: 24px;&quot;&gt;&lt;br&gt;&lt;/span&gt;&lt;/p&gt;&lt;p style=&quot;text-align: justify;&quot;&gt;&lt;span style=&quot;font-size: 24px;&quot;&gt;13.0: &lt;u&gt;Reportes&lt;/u&gt;: Menú para generar reportes de las distintas entidades en el sistema&lt;/span&gt;&lt;/p&gt;&lt;p style=&quot;text-align: justify;&quot;&gt;&lt;span style=&quot;font-size: 24px;&quot;&gt;&lt;span style=&quot;white-space: pre;&quot;&gt;&#x9;&lt;/span&gt;13.1: &lt;u&gt;Productos&lt;/u&gt;: Permite generar un reporte del inventario&lt;br&gt;&lt;/span&gt;&lt;/p&gt;&lt;p style=&quot;text-align: justify;&quot;&gt;&lt;span style=&quot;font-size: 24px;&quot;&gt;&lt;span style=&quot;white-space: pre;&quot;&gt;&#x9;&lt;/span&gt;13.2:&amp;nbsp;&lt;/span&gt;&lt;u style=&quot;font-size: 24px;&quot;&gt;Proveedores&lt;/u&gt;&lt;span style=&quot;font-size: 24px;&quot;&gt;: Permite generar un reporte de los proveedores afiliados&lt;/span&gt;&lt;span style=&quot;font-size: 24px;&quot;&gt;&lt;br&gt;&lt;/span&gt;&lt;/p&gt;&lt;p style=&quot;text-align: justify;&quot;&gt;&lt;span style=&quot;font-size: 24px;&quot;&gt;&lt;span style=&quot;white-space: pre;&quot;&gt;&#x9;&lt;/span&gt;13.3: &lt;u&gt;Ventas&lt;/u&gt;&lt;/span&gt;&lt;span style=&quot;font-size: 24px;&quot;&gt;: Permite generar un reporte de las ventas realizadas en un rango&lt;/span&gt;&lt;span style=&quot;font-size: 24px;&quot;&gt;&lt;br&gt;&lt;/span&gt;&lt;/p&gt;&lt;p style=&quot;text-align: justify;&quot;&gt;&lt;span style=&quot;font-size: 24px;&quot;&gt;&lt;span style=&quot;white-space: pre;&quot;&gt;&#x9;&lt;/span&gt;13.4: &lt;u&gt;Compras&lt;/u&gt;&lt;/span&gt;&lt;span style=&quot;font-size: 24px;&quot;&gt;: Permite generar un reporte de las compras realizadas en un rango&lt;/span&gt;&lt;span style=&quot;font-size: 24px;&quot;&gt;&lt;br&gt;&lt;/span&gt;&lt;/p&gt;&lt;p style=&quot;text-align: justify;&quot;&gt;&lt;span style=&quot;font-size: 24px;&quot;&gt;&lt;span style=&quot;white-space: pre;&quot;&gt;&#x9;&lt;/span&gt;13.5: &lt;u&gt;Clientes&lt;/u&gt;&lt;/span&gt;&lt;span style=&quot;font-size: 24px;&quot;&gt;: Permite generar un reporte de los clientes afiliados&lt;/span&gt;&lt;span style=&quot;font-size: 24px;&quot;&gt;&lt;br&gt;&lt;/span&gt;&lt;/p&gt;" style="text;html=1;whiteSpace=wrap;overflow=hidden;rounded=0;" parent="1" vertex="1">
          <mxGeometry x="75" y="1607" width="2085" height="2200" as="geometry" />
        </mxCell>
        <mxCell id="adoEOclTotcm9w5F_WD9-5" value="" style="group" parent="1" vertex="1" connectable="0">
          <mxGeometry x="29" y="316" width="2190" height="1052.5" as="geometry" />
        </mxCell>
        <mxCell id="303ed1de8c2c98b4-4" value="&lt;font style=&quot;font-size: 36px;&quot;&gt;Login&lt;/font&gt;" style="whiteSpace=wrap;html=1;rounded=1;shadow=1;strokeWidth=1;fontSize=16;align=center;fillColor=#f5f5f5;strokeColor=#666666;" parent="adoEOclTotcm9w5F_WD9-5" vertex="1">
          <mxGeometry x="767.0532452390205" y="40" width="204.27516517683634" height="105" as="geometry" />
        </mxCell>
        <mxCell id="303ed1de8c2c98b4-6" value="Transacciones" style="whiteSpace=wrap;html=1;rounded=1;shadow=1;strokeWidth=1;fontSize=22;align=center;fillColor=#f5f5f5;strokeColor=#666666;" parent="adoEOclTotcm9w5F_WD9-5" vertex="1">
          <mxGeometry x="1373.0695685969683" y="455" width="187.25223474543333" height="40" as="geometry" />
        </mxCell>
        <mxCell id="303ed1de8c2c98b4-7" value="Productos" style="whiteSpace=wrap;html=1;rounded=1;shadow=1;strokeWidth=1;fontSize=22;align=center;fillColor=#f5f5f5;strokeColor=#666666;" parent="adoEOclTotcm9w5F_WD9-5" vertex="1">
          <mxGeometry x="733.0073843762145" y="455" width="187.25223474543333" height="40" as="geometry" />
        </mxCell>
        <mxCell id="303ed1de8c2c98b4-8" value="Herramientas" style="whiteSpace=wrap;html=1;rounded=1;shadow=1;strokeWidth=1;fontSize=22;align=center;fillColor=#f5f5f5;strokeColor=#666666;" parent="adoEOclTotcm9w5F_WD9-5" vertex="1">
          <mxGeometry x="1578.7065682083169" y="455" width="187.25223474543333" height="40" as="geometry" />
        </mxCell>
        <mxCell id="303ed1de8c2c98b4-17" value="Realizar Respaldo" style="whiteSpace=wrap;html=1;rounded=1;shadow=1;strokeWidth=1;fontSize=22;align=center;fillColor=#f5f5f5;strokeColor=#666666;" parent="adoEOclTotcm9w5F_WD9-5" vertex="1">
          <mxGeometry x="1629.2646715895842" y="517.5" width="85.11465215701514" height="80" as="geometry" />
        </mxCell>
        <mxCell id="303ed1de8c2c98b4-18" value="Recuperar&amp;nbsp;&lt;div style=&quot;font-size: 22px;&quot;&gt;Datos&lt;/div&gt;" style="whiteSpace=wrap;html=1;rounded=1;shadow=1;strokeWidth=1;fontSize=22;align=center;fillColor=#f5f5f5;strokeColor=#666666;" parent="adoEOclTotcm9w5F_WD9-5" vertex="1">
          <mxGeometry x="1630.286047415468" y="972.5" width="85.11465215701514" height="80" as="geometry" />
        </mxCell>
        <mxCell id="303ed1de8c2c98b4-27" value="Agregar&lt;div style=&quot;font-size: 22px;&quot;&gt;&amp;nbsp;Usuario&lt;/div&gt;" style="whiteSpace=wrap;html=1;rounded=1;shadow=1;strokeWidth=1;fontSize=22;align=center;fillColor=#f5f5f5;strokeColor=#666666;" parent="adoEOclTotcm9w5F_WD9-5" vertex="1">
          <mxGeometry x="1629.2646715895842" y="627.5" width="85.11465215701514" height="80" as="geometry" />
        </mxCell>
        <mxCell id="303ed1de8c2c98b4-37" value="&lt;span style=&quot;font-size: 22px;&quot;&gt;Eliminar&amp;nbsp;&lt;/span&gt;&lt;div style=&quot;font-size: 22px;&quot;&gt;&lt;span style=&quot;font-size: 22px;&quot;&gt;Usuario&lt;/span&gt;&lt;/div&gt;" style="whiteSpace=wrap;html=1;rounded=1;shadow=1;strokeWidth=1;fontSize=22;align=center;fillColor=#f5f5f5;strokeColor=#666666;" parent="adoEOclTotcm9w5F_WD9-5" vertex="1">
          <mxGeometry x="1629.2646715895842" y="737.5" width="85.11465215701514" height="80" as="geometry" />
        </mxCell>
        <mxCell id="w7AkxN-CYHz_eCSMkKLC-25" value="" style="endArrow=none;html=1;rounded=0;exitX=0.5;exitY=0;exitDx=0;exitDy=0;fontSize=22;" parent="adoEOclTotcm9w5F_WD9-5" source="303ed1de8c2c98b4-7" edge="1">
          <mxGeometry width="50" height="50" relative="1" as="geometry">
            <mxPoint x="843.3159735717061" y="440" as="sourcePoint" />
            <mxPoint x="826.9739603575592" y="420" as="targetPoint" />
          </mxGeometry>
        </mxCell>
        <mxCell id="w7AkxN-CYHz_eCSMkKLC-26" value="" style="endArrow=none;html=1;rounded=0;exitX=0.5;exitY=0;exitDx=0;exitDy=0;fontSize=22;" parent="adoEOclTotcm9w5F_WD9-5" edge="1">
          <mxGeometry width="50" height="50" relative="1" as="geometry">
            <mxPoint x="1045.5960513019818" y="455" as="sourcePoint" />
            <mxPoint x="1045.5960513019818" y="420" as="targetPoint" />
          </mxGeometry>
        </mxCell>
        <mxCell id="w7AkxN-CYHz_eCSMkKLC-27" value="" style="endArrow=none;html=1;rounded=0;exitX=0.5;exitY=0;exitDx=0;exitDy=0;fontSize=22;" parent="adoEOclTotcm9w5F_WD9-5" edge="1">
          <mxGeometry width="50" height="50" relative="1" as="geometry">
            <mxPoint x="1260.0917839098327" y="455" as="sourcePoint" />
            <mxPoint x="1260.0917839098327" y="420" as="targetPoint" />
          </mxGeometry>
        </mxCell>
        <mxCell id="w7AkxN-CYHz_eCSMkKLC-28" value="" style="endArrow=none;html=1;rounded=0;fontSize=22;" parent="adoEOclTotcm9w5F_WD9-5" edge="1">
          <mxGeometry width="50" height="50" relative="1" as="geometry">
            <mxPoint x="827.8251068791293" y="420" as="sourcePoint" />
            <mxPoint x="2090.415856976292" y="420" as="targetPoint" />
          </mxGeometry>
        </mxCell>
        <mxCell id="w7AkxN-CYHz_eCSMkKLC-29" value="" style="endArrow=none;html=1;rounded=0;exitX=0.5;exitY=0;exitDx=0;exitDy=0;entryX=0.54;entryY=1.048;entryDx=0;entryDy=0;entryPerimeter=0;fontSize=22;" parent="adoEOclTotcm9w5F_WD9-5" target="w7AkxN-CYHz_eCSMkKLC-56" edge="1">
          <mxGeometry width="50" height="50" relative="1" as="geometry">
            <mxPoint x="1465.6130275942478" y="455" as="sourcePoint" />
            <mxPoint x="1465.6130275942478" y="420" as="targetPoint" />
          </mxGeometry>
        </mxCell>
        <mxCell id="w7AkxN-CYHz_eCSMkKLC-30" value="" style="endArrow=none;html=1;rounded=0;entryX=0.5;entryY=1;entryDx=0;entryDy=0;" parent="adoEOclTotcm9w5F_WD9-5" target="303ed1de8c2c98b4-4" edge="1">
          <mxGeometry width="50" height="50" relative="1" as="geometry">
            <mxPoint x="869.1908278274386" y="190" as="sourcePoint" />
            <mxPoint x="946.7541080450833" y="200" as="targetPoint" />
          </mxGeometry>
        </mxCell>
        <mxCell id="w7AkxN-CYHz_eCSMkKLC-32" value="" style="endArrow=none;html=1;rounded=0;fontSize=22;" parent="adoEOclTotcm9w5F_WD9-5" edge="1">
          <mxGeometry width="50" height="50" relative="1" as="geometry">
            <mxPoint x="1669.8609560823938" y="455" as="sourcePoint" />
            <mxPoint x="1669.949475320637" y="420" as="targetPoint" />
          </mxGeometry>
        </mxCell>
        <mxCell id="w7AkxN-CYHz_eCSMkKLC-33" value="" style="endArrow=none;html=1;rounded=0;fontSize=22;" parent="adoEOclTotcm9w5F_WD9-5" edge="1">
          <mxGeometry width="50" height="50" relative="1" as="geometry">
            <mxPoint x="1876.3899572483479" y="458.1400000000001" as="sourcePoint" />
            <mxPoint x="1876.4784764865913" y="423.1400000000001" as="targetPoint" />
          </mxGeometry>
        </mxCell>
        <mxCell id="w7AkxN-CYHz_eCSMkKLC-34" value="Reportes" style="whiteSpace=wrap;html=1;rounded=1;shadow=1;strokeWidth=1;fontSize=22;align=center;fillColor=#f5f5f5;strokeColor=#666666;" parent="adoEOclTotcm9w5F_WD9-5" vertex="1">
          <mxGeometry x="1998.4920326467159" y="457.82000000000005" width="187.25223474543333" height="40" as="geometry" />
        </mxCell>
        <mxCell id="w7AkxN-CYHz_eCSMkKLC-35" value="Productos" style="whiteSpace=wrap;html=1;rounded=1;shadow=1;strokeWidth=1;fontSize=22;align=center;fillColor=#f5f5f5;strokeColor=#666666;" parent="adoEOclTotcm9w5F_WD9-5" vertex="1">
          <mxGeometry x="2049.560823940925" y="520.32" width="85.11465215701514" height="80" as="geometry" />
        </mxCell>
        <mxCell id="w7AkxN-CYHz_eCSMkKLC-36" value="Clientes" style="whiteSpace=wrap;html=1;rounded=1;shadow=1;strokeWidth=1;fontSize=22;align=center;fillColor=#f5f5f5;strokeColor=#666666;" parent="adoEOclTotcm9w5F_WD9-5" vertex="1">
          <mxGeometry x="2049.560823940925" y="955.3199999999999" width="85.11465215701514" height="80" as="geometry" />
        </mxCell>
        <mxCell id="w7AkxN-CYHz_eCSMkKLC-37" value="&lt;span style=&quot;font-size: 22px;&quot;&gt;Prooveedores&lt;/span&gt;" style="whiteSpace=wrap;html=1;rounded=1;shadow=1;strokeWidth=1;fontSize=22;align=center;fillColor=#f5f5f5;strokeColor=#666666;" parent="adoEOclTotcm9w5F_WD9-5" vertex="1">
          <mxGeometry x="2049.560823940925" y="630.32" width="85.11465215701514" height="80" as="geometry" />
        </mxCell>
        <mxCell id="w7AkxN-CYHz_eCSMkKLC-38" value="&lt;span style=&quot;font-size: 22px;&quot;&gt;Compras&lt;/span&gt;" style="whiteSpace=wrap;html=1;rounded=1;shadow=1;strokeWidth=1;fontSize=22;align=center;fillColor=#f5f5f5;strokeColor=#666666;" parent="adoEOclTotcm9w5F_WD9-5" vertex="1">
          <mxGeometry x="2049.560823940925" y="847.8199999999999" width="85.11465215701514" height="80" as="geometry" />
        </mxCell>
        <mxCell id="w7AkxN-CYHz_eCSMkKLC-39" value="&lt;span style=&quot;font-size: 22px;&quot;&gt;Ventas&lt;/span&gt;" style="whiteSpace=wrap;html=1;rounded=1;shadow=1;strokeWidth=1;fontSize=22;align=center;fillColor=#f5f5f5;strokeColor=#666666;" parent="adoEOclTotcm9w5F_WD9-5" vertex="1">
          <mxGeometry x="2049.560823940925" y="740.32" width="85.11465215701514" height="80" as="geometry" />
        </mxCell>
        <mxCell id="w7AkxN-CYHz_eCSMkKLC-56" value="&lt;div&gt;&lt;span style=&quot;background-color: initial;&quot;&gt;&lt;font style=&quot;font-size: 24px;&quot;&gt;Interfaz de Administrador&lt;/font&gt;&lt;/span&gt;&lt;br&gt;&lt;/div&gt;" style="whiteSpace=wrap;html=1;rounded=1;shadow=1;strokeWidth=1;fontSize=16;align=center;fillColor=#f5f5f5;strokeColor=#666666;" parent="adoEOclTotcm9w5F_WD9-5" vertex="1">
          <mxGeometry x="1355.0252623396811" y="230" width="204.27516517683634" height="105" as="geometry" />
        </mxCell>
        <mxCell id="w7AkxN-CYHz_eCSMkKLC-58" value="&lt;div&gt;&lt;span style=&quot;background-color: initial;&quot;&gt;&lt;font style=&quot;font-size: 24px;&quot;&gt;Interfaz de Empleado&lt;/font&gt;&lt;/span&gt;&lt;br&gt;&lt;/div&gt;" style="whiteSpace=wrap;html=1;rounded=1;shadow=1;strokeWidth=1;fontSize=16;align=center;fillColor=#f5f5f5;strokeColor=#666666;" parent="adoEOclTotcm9w5F_WD9-5" vertex="1">
          <mxGeometry x="190.65682083171396" y="240" width="204.27516517683634" height="105" as="geometry" />
        </mxCell>
        <mxCell id="w7AkxN-CYHz_eCSMkKLC-60" value="" style="endArrow=none;html=1;rounded=0;" parent="adoEOclTotcm9w5F_WD9-5" edge="1">
          <mxGeometry width="50" height="50" relative="1" as="geometry">
            <mxPoint x="292.7944034201322" y="190" as="sourcePoint" />
            <mxPoint x="871.5740380878351" y="190" as="targetPoint" />
          </mxGeometry>
        </mxCell>
        <mxCell id="w7AkxN-CYHz_eCSMkKLC-61" value="" style="endArrow=none;html=1;rounded=0;" parent="adoEOclTotcm9w5F_WD9-5" edge="1">
          <mxGeometry width="50" height="50" relative="1" as="geometry">
            <mxPoint x="871.5740380878351" y="190" as="sourcePoint" />
            <mxPoint x="1450.3536727555381" y="190" as="targetPoint" />
          </mxGeometry>
        </mxCell>
        <mxCell id="w7AkxN-CYHz_eCSMkKLC-62" value="" style="endArrow=none;html=1;rounded=0;entryX=0.5;entryY=1;entryDx=0;entryDy=0;" parent="adoEOclTotcm9w5F_WD9-5" source="w7AkxN-CYHz_eCSMkKLC-58" edge="1">
          <mxGeometry width="50" height="50" relative="1" as="geometry">
            <mxPoint x="292.7944034201322" y="235" as="sourcePoint" />
            <mxPoint x="292.7944034201322" y="190" as="targetPoint" />
          </mxGeometry>
        </mxCell>
        <mxCell id="w7AkxN-CYHz_eCSMkKLC-63" value="" style="endArrow=none;html=1;rounded=0;" parent="adoEOclTotcm9w5F_WD9-5" edge="1">
          <mxGeometry width="50" height="50" relative="1" as="geometry">
            <mxPoint x="1450.3536727555381" y="230" as="sourcePoint" />
            <mxPoint x="1450.3536727555381" y="190" as="targetPoint" />
          </mxGeometry>
        </mxCell>
        <mxCell id="w7AkxN-CYHz_eCSMkKLC-187" value="Modificar&lt;div style=&quot;font-size: 22px;&quot;&gt;&amp;nbsp;Usuario&lt;/div&gt;" style="whiteSpace=wrap;html=1;rounded=1;shadow=1;strokeWidth=1;fontSize=22;align=center;fillColor=#f5f5f5;strokeColor=#666666;" parent="adoEOclTotcm9w5F_WD9-5" vertex="1">
          <mxGeometry x="1629.2646715895842" y="852.5" width="86.13602798289935" height="80" as="geometry" />
        </mxCell>
        <mxCell id="w7AkxN-CYHz_eCSMkKLC-192" value="Proveedores" style="whiteSpace=wrap;html=1;rounded=1;shadow=1;strokeWidth=1;fontSize=22;align=center;fillColor=#f5f5f5;strokeColor=#666666;" parent="adoEOclTotcm9w5F_WD9-5" vertex="1">
          <mxGeometry x="1168.7944034201319" y="455" width="187.25223474543333" height="40" as="geometry" />
        </mxCell>
        <mxCell id="w7AkxN-CYHz_eCSMkKLC-205" value="&lt;font style=&quot;font-size: 22px;&quot;&gt;Transacciones&lt;/font&gt;" style="whiteSpace=wrap;html=1;rounded=1;shadow=1;strokeWidth=1;fontSize=22;align=center;fillColor=#f5f5f5;strokeColor=#666666;" parent="adoEOclTotcm9w5F_WD9-5" vertex="1">
          <mxGeometry x="204.27516517683634" y="452.5" width="187.25223474543333" height="40" as="geometry" />
        </mxCell>
        <mxCell id="w7AkxN-CYHz_eCSMkKLC-226" value="&lt;font style=&quot;font-size: 22px;&quot;&gt;Ayuda&lt;/font&gt;" style="whiteSpace=wrap;html=1;rounded=1;shadow=1;strokeWidth=1;fontSize=22;align=center;fillColor=#f5f5f5;strokeColor=#666666;" parent="adoEOclTotcm9w5F_WD9-5" vertex="1">
          <mxGeometry x="415.35950252623394" y="452.5" width="187.25223474543333" height="40" as="geometry" />
        </mxCell>
        <mxCell id="w7AkxN-CYHz_eCSMkKLC-227" value="Acerca de" style="whiteSpace=wrap;html=1;rounded=1;shadow=1;strokeWidth=1;fontSize=22;align=center;fillColor=#f5f5f5;strokeColor=#666666;" parent="adoEOclTotcm9w5F_WD9-5" vertex="1">
          <mxGeometry x="466.42829382044295" y="522.5" width="85.11465215701514" height="80" as="geometry" />
        </mxCell>
        <mxCell id="w7AkxN-CYHz_eCSMkKLC-228" value="Manual de Usuario" style="whiteSpace=wrap;html=1;rounded=1;shadow=1;strokeWidth=1;fontSize=22;align=center;fillColor=#f5f5f5;strokeColor=#666666;" parent="adoEOclTotcm9w5F_WD9-5" vertex="1">
          <mxGeometry x="466.42829382044295" y="630" width="85.11465215701514" height="80" as="geometry" />
        </mxCell>
        <mxCell id="w7AkxN-CYHz_eCSMkKLC-233" value="" style="endArrow=none;html=1;rounded=0;exitX=0.5;exitY=0;exitDx=0;exitDy=0;fontSize=22;" parent="adoEOclTotcm9w5F_WD9-5" edge="1">
          <mxGeometry width="50" height="50" relative="1" as="geometry">
            <mxPoint x="91.29738048970067" y="452.5" as="sourcePoint" />
            <mxPoint x="91.29738048970067" y="417.5" as="targetPoint" />
          </mxGeometry>
        </mxCell>
        <mxCell id="w7AkxN-CYHz_eCSMkKLC-234" value="" style="endArrow=none;html=1;rounded=0;fontSize=22;" parent="adoEOclTotcm9w5F_WD9-5" edge="1">
          <mxGeometry width="50" height="50" relative="1" as="geometry">
            <mxPoint x="88.51923824329577" y="417.5" as="sourcePoint" />
            <mxPoint x="510.68791294209086" y="417.5" as="targetPoint" />
          </mxGeometry>
        </mxCell>
        <mxCell id="w7AkxN-CYHz_eCSMkKLC-237" value="" style="endArrow=none;html=1;rounded=0;fontSize=22;" parent="adoEOclTotcm9w5F_WD9-5" edge="1">
          <mxGeometry width="50" height="50" relative="1" as="geometry">
            <mxPoint x="508.7677263894285" y="452.5" as="sourcePoint" />
            <mxPoint x="508.85624562767185" y="417.5" as="targetPoint" />
          </mxGeometry>
        </mxCell>
        <mxCell id="w7AkxN-CYHz_eCSMkKLC-252" value="&lt;font style=&quot;font-size: 22px;&quot;&gt;Clientes&lt;/font&gt;" style="whiteSpace=wrap;html=1;rounded=1;shadow=1;strokeWidth=1;fontSize=22;align=center;fillColor=#f5f5f5;strokeColor=#666666;" parent="adoEOclTotcm9w5F_WD9-5" vertex="1">
          <mxGeometry y="452.5" width="187.25223474543333" height="40" as="geometry" />
        </mxCell>
        <mxCell id="w7AkxN-CYHz_eCSMkKLC-259" value="Índices de Búsqueda" style="whiteSpace=wrap;html=1;rounded=1;shadow=1;strokeWidth=1;fontSize=22;align=center;fillColor=#f5f5f5;strokeColor=#666666;" parent="adoEOclTotcm9w5F_WD9-5" vertex="1">
          <mxGeometry x="466.42829382044295" y="732.5" width="85.11465215701514" height="80" as="geometry" />
        </mxCell>
        <mxCell id="w7AkxN-CYHz_eCSMkKLC-265" value="" style="endArrow=none;html=1;rounded=0;entryX=0.5;entryY=1;entryDx=0;entryDy=0;fontSize=22;" parent="adoEOclTotcm9w5F_WD9-5" target="w7AkxN-CYHz_eCSMkKLC-58" edge="1">
          <mxGeometry width="50" height="50" relative="1" as="geometry">
            <mxPoint x="292.7944034201322" y="450" as="sourcePoint" />
            <mxPoint x="306.41274776525455" y="410" as="targetPoint" />
          </mxGeometry>
        </mxCell>
        <mxCell id="EWDZrCvJoFyOOxtHa1C8-12" value="" style="shape=partialRectangle;whiteSpace=wrap;html=1;top=0;left=0;fillColor=none;rotation=90;fontSize=22;" parent="adoEOclTotcm9w5F_WD9-5" vertex="1">
          <mxGeometry x="354.0769529731831" y="620.32" width="200.0194325689856" height="38.75" as="geometry" />
        </mxCell>
        <mxCell id="EWDZrCvJoFyOOxtHa1C8-13" value="" style="shape=partialRectangle;whiteSpace=wrap;html=1;bottom=0;right=0;fillColor=none;rotation=-90;fontSize=22;" parent="adoEOclTotcm9w5F_WD9-5" vertex="1">
          <mxGeometry x="392.3785464438398" y="564.07" width="122.56509910610181" height="37.5" as="geometry" />
        </mxCell>
        <mxCell id="EWDZrCvJoFyOOxtHa1C8-14" value="" style="shape=partialRectangle;whiteSpace=wrap;html=1;bottom=0;right=0;fillColor=none;rotation=-90;fontSize=22;" parent="adoEOclTotcm9w5F_WD9-5" vertex="1">
          <mxGeometry x="430.46905557714734" y="508.7600000000001" width="47.24203653322969" height="37.5" as="geometry" />
        </mxCell>
        <mxCell id="EWDZrCvJoFyOOxtHa1C8-15" value="Ayuda" style="whiteSpace=wrap;html=1;rounded=1;shadow=1;strokeWidth=1;fontSize=22;align=center;fillColor=#f5f5f5;strokeColor=#666666;" parent="adoEOclTotcm9w5F_WD9-5" vertex="1">
          <mxGeometry x="1797.6214535561598" y="455.6400000000001" width="187.25223474543333" height="40" as="geometry" />
        </mxCell>
        <mxCell id="EWDZrCvJoFyOOxtHa1C8-16" value="Acerca de" style="whiteSpace=wrap;html=1;rounded=1;shadow=1;strokeWidth=1;fontSize=22;align=center;fillColor=#f5f5f5;strokeColor=#666666;" parent="adoEOclTotcm9w5F_WD9-5" vertex="1">
          <mxGeometry x="1848.6902448503688" y="525.6400000000001" width="85.11465215701514" height="80" as="geometry" />
        </mxCell>
        <mxCell id="EWDZrCvJoFyOOxtHa1C8-17" value="Manual de Usuario" style="whiteSpace=wrap;html=1;rounded=1;shadow=1;strokeWidth=1;fontSize=22;align=center;fillColor=#f5f5f5;strokeColor=#666666;" parent="adoEOclTotcm9w5F_WD9-5" vertex="1">
          <mxGeometry x="1848.6902448503688" y="633.1400000000001" width="85.11465215701514" height="80" as="geometry" />
        </mxCell>
        <mxCell id="EWDZrCvJoFyOOxtHa1C8-18" value="Índices de Búsqueda" style="whiteSpace=wrap;html=1;rounded=1;shadow=1;strokeWidth=1;fontSize=22;align=center;fillColor=#f5f5f5;strokeColor=#666666;" parent="adoEOclTotcm9w5F_WD9-5" vertex="1">
          <mxGeometry x="1848.6902448503688" y="735.6400000000001" width="85.11465215701514" height="80" as="geometry" />
        </mxCell>
        <mxCell id="EWDZrCvJoFyOOxtHa1C8-19" value="" style="shape=partialRectangle;whiteSpace=wrap;html=1;top=0;left=0;fillColor=none;rotation=90;fontSize=22;" parent="adoEOclTotcm9w5F_WD9-5" vertex="1">
          <mxGeometry x="1736.338904003109" y="623.4600000000002" width="200.0194325689856" height="38.75" as="geometry" />
        </mxCell>
        <mxCell id="EWDZrCvJoFyOOxtHa1C8-20" value="" style="shape=partialRectangle;whiteSpace=wrap;html=1;bottom=0;right=0;fillColor=none;rotation=-90;fontSize=22;" parent="adoEOclTotcm9w5F_WD9-5" vertex="1">
          <mxGeometry x="1774.640497473766" y="567.2100000000002" width="122.56509910610181" height="37.5" as="geometry" />
        </mxCell>
        <mxCell id="EWDZrCvJoFyOOxtHa1C8-21" value="" style="shape=partialRectangle;whiteSpace=wrap;html=1;bottom=0;right=0;fillColor=none;rotation=-90;fontSize=22;" parent="adoEOclTotcm9w5F_WD9-5" vertex="1">
          <mxGeometry x="1812.7310066070731" y="511.9000000000002" width="47.24203653322969" height="37.5" as="geometry" />
        </mxCell>
        <mxCell id="EWDZrCvJoFyOOxtHa1C8-23" value="Clientes" style="whiteSpace=wrap;html=1;rounded=1;shadow=1;strokeWidth=1;fontSize=22;align=center;fillColor=#f5f5f5;strokeColor=#666666;" parent="adoEOclTotcm9w5F_WD9-5" vertex="1">
          <mxGeometry x="951.5818111154294" y="452.5" width="187.25223474543333" height="40" as="geometry" />
        </mxCell>
        <mxCell id="EWDZrCvJoFyOOxtHa1C8-24" value="Modificar" style="whiteSpace=wrap;html=1;rounded=1;shadow=1;strokeWidth=1;fontSize=22;align=center;fillColor=#f5f5f5;strokeColor=#666666;" parent="adoEOclTotcm9w5F_WD9-5" vertex="1">
          <mxGeometry x="999.2460163233579" y="630" width="85.11465215701514" height="80" as="geometry" />
        </mxCell>
        <mxCell id="EWDZrCvJoFyOOxtHa1C8-26" value="Agregar" style="whiteSpace=wrap;html=1;rounded=1;shadow=1;strokeWidth=1;fontSize=22;align=center;fillColor=#f5f5f5;strokeColor=#666666;" parent="adoEOclTotcm9w5F_WD9-5" vertex="1">
          <mxGeometry x="999.2460163233579" y="522.5" width="85.11465215701514" height="80" as="geometry" />
        </mxCell>
        <mxCell id="EWDZrCvJoFyOOxtHa1C8-28" value="" style="shape=partialRectangle;whiteSpace=wrap;html=1;bottom=0;right=0;fillColor=none;rotation=-90;fontSize=22;" parent="adoEOclTotcm9w5F_WD9-5" vertex="1">
          <mxGeometry x="923.4939759036143" y="563.75" width="122.56509910610181" height="37.5" as="geometry" />
        </mxCell>
        <mxCell id="EWDZrCvJoFyOOxtHa1C8-29" value="" style="shape=partialRectangle;whiteSpace=wrap;html=1;bottom=0;right=0;fillColor=none;rotation=-90;fontSize=22;" parent="adoEOclTotcm9w5F_WD9-5" vertex="1">
          <mxGeometry x="960.5844850369218" y="497.44000000000005" width="47.24203653322969" height="37.5" as="geometry" />
        </mxCell>
        <mxCell id="EWDZrCvJoFyOOxtHa1C8-38" value="Modificar" style="whiteSpace=wrap;html=1;rounded=1;shadow=1;strokeWidth=1;fontSize=22;align=center;fillColor=#f5f5f5;strokeColor=#666666;" parent="adoEOclTotcm9w5F_WD9-5" vertex="1">
          <mxGeometry x="801.7800233190827" y="630" width="85.11465215701514" height="80" as="geometry" />
        </mxCell>
        <mxCell id="EWDZrCvJoFyOOxtHa1C8-40" value="Agregar" style="whiteSpace=wrap;html=1;rounded=1;shadow=1;strokeWidth=1;fontSize=22;align=center;fillColor=#f5f5f5;strokeColor=#666666;" parent="adoEOclTotcm9w5F_WD9-5" vertex="1">
          <mxGeometry x="801.7800233190827" y="522.5" width="85.11465215701514" height="80" as="geometry" />
        </mxCell>
        <mxCell id="EWDZrCvJoFyOOxtHa1C8-42" value="" style="shape=partialRectangle;whiteSpace=wrap;html=1;bottom=0;right=0;fillColor=none;rotation=-90;fontSize=22;" parent="adoEOclTotcm9w5F_WD9-5" vertex="1">
          <mxGeometry x="726.0279828993392" y="563.75" width="122.56509910610181" height="37.5" as="geometry" />
        </mxCell>
        <mxCell id="EWDZrCvJoFyOOxtHa1C8-43" value="" style="shape=partialRectangle;whiteSpace=wrap;html=1;bottom=0;right=0;fillColor=none;rotation=-90;fontSize=22;" parent="adoEOclTotcm9w5F_WD9-5" vertex="1">
          <mxGeometry x="763.1184920326466" y="500.44000000000005" width="47.24203653322969" height="37.5" as="geometry" />
        </mxCell>
        <mxCell id="EWDZrCvJoFyOOxtHa1C8-56" value="Modificar" style="whiteSpace=wrap;html=1;rounded=1;shadow=1;strokeWidth=1;fontSize=22;align=center;fillColor=#f5f5f5;strokeColor=#666666;" parent="adoEOclTotcm9w5F_WD9-5" vertex="1">
          <mxGeometry x="1237.5670423630004" y="630.32" width="85.11465215701514" height="80" as="geometry" />
        </mxCell>
        <mxCell id="EWDZrCvJoFyOOxtHa1C8-58" value="Agregar" style="whiteSpace=wrap;html=1;rounded=1;shadow=1;strokeWidth=1;fontSize=22;align=center;fillColor=#f5f5f5;strokeColor=#666666;" parent="adoEOclTotcm9w5F_WD9-5" vertex="1">
          <mxGeometry x="1237.5670423630004" y="522.82" width="85.11465215701514" height="80" as="geometry" />
        </mxCell>
        <mxCell id="EWDZrCvJoFyOOxtHa1C8-60" value="" style="shape=partialRectangle;whiteSpace=wrap;html=1;bottom=0;right=0;fillColor=none;rotation=-90;fontSize=22;" parent="adoEOclTotcm9w5F_WD9-5" vertex="1">
          <mxGeometry x="1161.8150019432571" y="564.07" width="122.56509910610181" height="37.5" as="geometry" />
        </mxCell>
        <mxCell id="EWDZrCvJoFyOOxtHa1C8-61" value="" style="shape=partialRectangle;whiteSpace=wrap;html=1;bottom=0;right=0;fillColor=none;rotation=-90;fontSize=22;" parent="adoEOclTotcm9w5F_WD9-5" vertex="1">
          <mxGeometry x="1199.9055110765642" y="508.7600000000001" width="47.24203653322969" height="37.5" as="geometry" />
        </mxCell>
        <mxCell id="EWDZrCvJoFyOOxtHa1C8-64" value="Registrar Compra" style="whiteSpace=wrap;html=1;rounded=1;shadow=1;strokeWidth=1;fontSize=22;align=center;fillColor=#f5f5f5;strokeColor=#666666;" parent="adoEOclTotcm9w5F_WD9-5" vertex="1">
          <mxGeometry x="1423.9681305868633" y="630" width="85.11465215701514" height="80" as="geometry" />
        </mxCell>
        <mxCell id="EWDZrCvJoFyOOxtHa1C8-65" value="Registrar Venta" style="whiteSpace=wrap;html=1;rounded=1;shadow=1;strokeWidth=1;fontSize=22;align=center;fillColor=#f5f5f5;strokeColor=#666666;" parent="adoEOclTotcm9w5F_WD9-5" vertex="1">
          <mxGeometry x="1423.9681305868633" y="522.5" width="85.11465215701514" height="80" as="geometry" />
        </mxCell>
        <mxCell id="EWDZrCvJoFyOOxtHa1C8-66" value="" style="shape=partialRectangle;whiteSpace=wrap;html=1;bottom=0;right=0;fillColor=none;rotation=-90;fontSize=22;" parent="adoEOclTotcm9w5F_WD9-5" vertex="1">
          <mxGeometry x="1348.21609016712" y="563.75" width="122.56509910610181" height="37.5" as="geometry" />
        </mxCell>
        <mxCell id="EWDZrCvJoFyOOxtHa1C8-67" value="" style="shape=partialRectangle;whiteSpace=wrap;html=1;bottom=0;right=0;fillColor=none;rotation=-90;fontSize=22;" parent="adoEOclTotcm9w5F_WD9-5" vertex="1">
          <mxGeometry x="1386.3065993004275" y="508.44000000000005" width="47.24203653322969" height="37.5" as="geometry" />
        </mxCell>
        <mxCell id="x82hmF_93pj6DDaHTNPA-2" value="" style="shape=partialRectangle;whiteSpace=wrap;html=1;top=0;left=0;fillColor=none;rotation=90;fontSize=22;" parent="adoEOclTotcm9w5F_WD9-5" vertex="1">
          <mxGeometry x="1515.3812670034974" y="618.9000000000001" width="200.0194325689856" height="38.75" as="geometry" />
        </mxCell>
        <mxCell id="x82hmF_93pj6DDaHTNPA-3" value="" style="shape=partialRectangle;whiteSpace=wrap;html=1;bottom=0;right=0;fillColor=none;rotation=-90;fontSize=22;" parent="adoEOclTotcm9w5F_WD9-5" vertex="1">
          <mxGeometry x="1553.6828604741545" y="562.6500000000001" width="122.56509910610181" height="37.5" as="geometry" />
        </mxCell>
        <mxCell id="x82hmF_93pj6DDaHTNPA-4" value="" style="shape=partialRectangle;whiteSpace=wrap;html=1;bottom=0;right=0;fillColor=none;rotation=-90;fontSize=22;" parent="adoEOclTotcm9w5F_WD9-5" vertex="1">
          <mxGeometry x="1591.773369607462" y="507.34000000000015" width="47.24203653322969" height="37.5" as="geometry" />
        </mxCell>
        <mxCell id="x82hmF_93pj6DDaHTNPA-5" value="" style="shape=partialRectangle;whiteSpace=wrap;html=1;top=0;left=0;fillColor=none;rotation=90;fontSize=22;" parent="adoEOclTotcm9w5F_WD9-5" vertex="1">
          <mxGeometry x="1515.3812670034974" y="852.5000000000002" width="200.0194325689856" height="38.75" as="geometry" />
        </mxCell>
        <mxCell id="x82hmF_93pj6DDaHTNPA-6" value="" style="shape=partialRectangle;whiteSpace=wrap;html=1;bottom=0;right=0;fillColor=none;rotation=-90;fontSize=22;" parent="adoEOclTotcm9w5F_WD9-5" vertex="1">
          <mxGeometry x="1553.6828604741545" y="780.0000000000002" width="122.56509910610181" height="37.5" as="geometry" />
        </mxCell>
        <mxCell id="x82hmF_93pj6DDaHTNPA-8" value="" style="shape=partialRectangle;whiteSpace=wrap;html=1;top=0;left=0;fillColor=none;rotation=90;fontSize=22;" parent="adoEOclTotcm9w5F_WD9-5" vertex="1">
          <mxGeometry x="1934.6560435289541" y="623.1400000000001" width="200.0194325689856" height="38.75" as="geometry" />
        </mxCell>
        <mxCell id="x82hmF_93pj6DDaHTNPA-9" value="" style="shape=partialRectangle;whiteSpace=wrap;html=1;bottom=0;right=0;fillColor=none;rotation=-90;fontSize=22;" parent="adoEOclTotcm9w5F_WD9-5" vertex="1">
          <mxGeometry x="1972.9576369996112" y="566.8900000000001" width="122.56509910610181" height="37.5" as="geometry" />
        </mxCell>
        <mxCell id="x82hmF_93pj6DDaHTNPA-10" value="" style="shape=partialRectangle;whiteSpace=wrap;html=1;bottom=0;right=0;fillColor=none;rotation=-90;fontSize=22;" parent="adoEOclTotcm9w5F_WD9-5" vertex="1">
          <mxGeometry x="2011.0481461329189" y="511.58000000000015" width="47.24203653322969" height="37.5" as="geometry" />
        </mxCell>
        <mxCell id="x82hmF_93pj6DDaHTNPA-11" value="" style="shape=partialRectangle;whiteSpace=wrap;html=1;top=0;left=0;fillColor=none;rotation=90;fontSize=22;" parent="adoEOclTotcm9w5F_WD9-5" vertex="1">
          <mxGeometry x="1934.6560435289541" y="856.7400000000002" width="200.0194325689856" height="38.75" as="geometry" />
        </mxCell>
        <mxCell id="x82hmF_93pj6DDaHTNPA-12" value="" style="shape=partialRectangle;whiteSpace=wrap;html=1;bottom=0;right=0;fillColor=none;rotation=-90;fontSize=22;" parent="adoEOclTotcm9w5F_WD9-5" vertex="1">
          <mxGeometry x="1972.9576369996112" y="784.2400000000002" width="122.56509910610181" height="37.5" as="geometry" />
        </mxCell>
        <mxCell id="x82hmF_93pj6DDaHTNPA-13" value="&lt;b&gt;&lt;font style=&quot;font-size: 24px;&quot;&gt;1.0&lt;/font&gt;&lt;/b&gt;" style="text;html=1;align=center;verticalAlign=middle;whiteSpace=wrap;rounded=0;" parent="adoEOclTotcm9w5F_WD9-5" vertex="1">
          <mxGeometry x="923.4939759036143" width="40.85503303536727" height="30" as="geometry" />
        </mxCell>
        <mxCell id="x82hmF_93pj6DDaHTNPA-14" value="&lt;b&gt;&lt;font style=&quot;font-size: 24px;&quot;&gt;2.0&lt;/font&gt;&lt;/b&gt;" style="text;html=1;align=center;verticalAlign=middle;whiteSpace=wrap;rounded=0;" parent="adoEOclTotcm9w5F_WD9-5" vertex="1">
          <mxGeometry x="350.67236688690247" y="200" width="40.85503303536727" height="30" as="geometry" />
        </mxCell>
        <mxCell id="x82hmF_93pj6DDaHTNPA-16" value="&lt;b&gt;&lt;font style=&quot;font-size: 24px;&quot;&gt;3.0&lt;/font&gt;&lt;/b&gt;" style="text;html=1;align=center;verticalAlign=middle;whiteSpace=wrap;rounded=0;" parent="adoEOclTotcm9w5F_WD9-5" vertex="1">
          <mxGeometry x="1511.6362223085891" y="190" width="40.85503303536727" height="30" as="geometry" />
        </mxCell>
        <mxCell id="x82hmF_93pj6DDaHTNPA-17" value="&lt;b style=&quot;font-size: 22px;&quot;&gt;&lt;font style=&quot;font-size: 22px;&quot;&gt;4.0&lt;/font&gt;&lt;/b&gt;" style="text;html=1;align=center;verticalAlign=middle;whiteSpace=wrap;rounded=0;fontSize=22;" parent="adoEOclTotcm9w5F_WD9-5" vertex="1">
          <mxGeometry x="146.3972017100661" y="420" width="40.85503303536727" height="30" as="geometry" />
        </mxCell>
        <mxCell id="x82hmF_93pj6DDaHTNPA-19" value="&lt;b style=&quot;font-size: 22px;&quot;&gt;&lt;font style=&quot;font-size: 22px;&quot;&gt;5&lt;/font&gt;&lt;/b&gt;&lt;b style=&quot;background-color: initial; font-size: 22px;&quot;&gt;&lt;font style=&quot;font-size: 22px;&quot;&gt;.0&lt;/font&gt;&lt;/b&gt;" style="text;html=1;align=center;verticalAlign=middle;whiteSpace=wrap;rounded=0;fontSize=22;" parent="adoEOclTotcm9w5F_WD9-5" vertex="1">
          <mxGeometry x="350.67236688690247" y="418.91999999999996" width="40.85503303536727" height="30" as="geometry" />
        </mxCell>
        <mxCell id="x82hmF_93pj6DDaHTNPA-37" value="" style="endArrow=none;html=1;rounded=0;fontSize=22;" parent="adoEOclTotcm9w5F_WD9-5" edge="1">
          <mxGeometry width="50" height="50" relative="1" as="geometry">
            <mxPoint x="2091.920684026428" y="457.82000000000005" as="sourcePoint" />
            <mxPoint x="2092.009203264671" y="422.82000000000005" as="targetPoint" />
          </mxGeometry>
        </mxCell>
        <mxCell id="x82hmF_93pj6DDaHTNPA-44" value="&lt;b style=&quot;background-color: initial; font-size: 22px;&quot;&gt;&lt;font style=&quot;font-size: 22px;&quot;&gt;6.0&lt;/font&gt;&lt;/b&gt;" style="text;html=1;align=center;verticalAlign=middle;whiteSpace=wrap;rounded=0;fontSize=22;" parent="adoEOclTotcm9w5F_WD9-5" vertex="1">
          <mxGeometry x="565.1612903225806" y="418.91999999999996" width="40.85503303536727" height="30" as="geometry" />
        </mxCell>
        <mxCell id="x82hmF_93pj6DDaHTNPA-45" value="&lt;b style=&quot;background-color: initial; font-size: 22px;&quot;&gt;&lt;font style=&quot;font-size: 22px;&quot;&gt;7.0&lt;/font&gt;&lt;/b&gt;" style="text;html=1;align=center;verticalAlign=middle;whiteSpace=wrap;rounded=0;fontSize=22;" parent="adoEOclTotcm9w5F_WD9-5" vertex="1">
          <mxGeometry x="910.726778080062" y="422.82000000000005" width="40.85503303536727" height="30" as="geometry" />
        </mxCell>
        <mxCell id="x82hmF_93pj6DDaHTNPA-46" value="&lt;b style=&quot;font-size: 22px;&quot;&gt;&lt;font style=&quot;font-size: 22px;&quot;&gt;6.1&lt;/font&gt;&lt;/b&gt;" style="text;html=1;align=center;verticalAlign=middle;whiteSpace=wrap;rounded=0;fontSize=22;" parent="adoEOclTotcm9w5F_WD9-5" vertex="1">
          <mxGeometry x="558.3521181500194" y="505.08000000000004" width="40.85503303536727" height="30" as="geometry" />
        </mxCell>
        <mxCell id="x82hmF_93pj6DDaHTNPA-47" value="&lt;b style=&quot;font-size: 22px;&quot;&gt;&lt;font style=&quot;font-size: 22px;&quot;&gt;6.2&lt;/font&gt;&lt;/b&gt;" style="text;html=1;align=center;verticalAlign=middle;whiteSpace=wrap;rounded=0;fontSize=22;" parent="adoEOclTotcm9w5F_WD9-5" vertex="1">
          <mxGeometry x="558.3521181500194" y="621.0200000000001" width="40.85503303536727" height="30" as="geometry" />
        </mxCell>
        <mxCell id="x82hmF_93pj6DDaHTNPA-48" value="&lt;b style=&quot;font-size: 22px;&quot;&gt;&lt;font style=&quot;font-size: 22px;&quot;&gt;6.3&lt;/font&gt;&lt;/b&gt;" style="text;html=1;align=center;verticalAlign=middle;whiteSpace=wrap;rounded=0;fontSize=22;" parent="adoEOclTotcm9w5F_WD9-5" vertex="1">
          <mxGeometry x="558.3521181500194" y="730.5600000000001" width="40.85503303536727" height="30" as="geometry" />
        </mxCell>
        <mxCell id="x82hmF_93pj6DDaHTNPA-49" value="&lt;b style=&quot;font-size: 22px;&quot;&gt;&lt;font style=&quot;font-size: 22px;&quot;&gt;7.1&lt;/font&gt;&lt;/b&gt;" style="text;html=1;align=center;verticalAlign=middle;whiteSpace=wrap;rounded=0;fontSize=22;" parent="adoEOclTotcm9w5F_WD9-5" vertex="1">
          <mxGeometry x="899.6618732996501" y="500.32000000000005" width="40.85503303536727" height="30" as="geometry" />
        </mxCell>
        <mxCell id="x82hmF_93pj6DDaHTNPA-50" value="&lt;b style=&quot;font-size: 22px;&quot;&gt;&lt;font style=&quot;font-size: 22px;&quot;&gt;7.2&lt;/font&gt;&lt;/b&gt;" style="text;html=1;align=center;verticalAlign=middle;whiteSpace=wrap;rounded=0;fontSize=22;" parent="adoEOclTotcm9w5F_WD9-5" vertex="1">
          <mxGeometry x="899.6618732996501" y="616.2600000000001" width="40.85503303536727" height="30" as="geometry" />
        </mxCell>
        <mxCell id="x82hmF_93pj6DDaHTNPA-56" value="&lt;b style=&quot;background-color: initial; font-size: 22px;&quot;&gt;&lt;font style=&quot;font-size: 22px;&quot;&gt;9.0&lt;/font&gt;&lt;/b&gt;" style="text;html=1;align=center;verticalAlign=middle;whiteSpace=wrap;rounded=0;fontSize=22;" parent="adoEOclTotcm9w5F_WD9-5" vertex="1">
          <mxGeometry x="1341.0664593859308" y="425.7800000000001" width="40.85503303536727" height="30" as="geometry" />
        </mxCell>
        <mxCell id="x82hmF_93pj6DDaHTNPA-57" value="&lt;b style=&quot;background-color: initial; font-size: 22px;&quot;&gt;&lt;font style=&quot;font-size: 22px;&quot;&gt;10.0&lt;/font&gt;&lt;/b&gt;" style="text;html=1;align=center;verticalAlign=middle;whiteSpace=wrap;rounded=0;fontSize=22;" parent="adoEOclTotcm9w5F_WD9-5" vertex="1">
          <mxGeometry x="1537.8515351729498" y="420" width="40.85503303536727" height="30" as="geometry" />
        </mxCell>
        <mxCell id="x82hmF_93pj6DDaHTNPA-59" value="&lt;b style=&quot;background-color: initial; font-size: 22px;&quot;&gt;&lt;font style=&quot;font-size: 22px;&quot;&gt;11.0&lt;/font&gt;&lt;/b&gt;" style="text;html=1;align=center;verticalAlign=middle;whiteSpace=wrap;rounded=0;fontSize=22;" parent="adoEOclTotcm9w5F_WD9-5" vertex="1">
          <mxGeometry x="1750.8083948698015" y="427.0200000000001" width="40.85503303536727" height="30" as="geometry" />
        </mxCell>
        <mxCell id="x82hmF_93pj6DDaHTNPA-62" value="&lt;b style=&quot;background-color: initial; font-size: 22px;&quot;&gt;&lt;font style=&quot;font-size: 22px;&quot;&gt;9.1&lt;/font&gt;&lt;/b&gt;" style="text;html=1;align=center;verticalAlign=middle;whiteSpace=wrap;rounded=0;fontSize=22;" parent="adoEOclTotcm9w5F_WD9-5" vertex="1">
          <mxGeometry x="1322.6816945200153" y="516.0900000000001" width="40.85503303536727" height="30" as="geometry" />
        </mxCell>
        <mxCell id="x82hmF_93pj6DDaHTNPA-63" value="&lt;b style=&quot;background-color: initial; font-size: 22px;&quot;&gt;&lt;font style=&quot;font-size: 22px;&quot;&gt;9.2&lt;/font&gt;&lt;/b&gt;" style="text;html=1;align=center;verticalAlign=middle;whiteSpace=wrap;rounded=0;fontSize=22;" parent="adoEOclTotcm9w5F_WD9-5" vertex="1">
          <mxGeometry x="1322.6816945200153" y="618.9000000000001" width="40.85503303536727" height="30" as="geometry" />
        </mxCell>
        <mxCell id="x82hmF_93pj6DDaHTNPA-64" value="&lt;b style=&quot;font-size: 22px;&quot;&gt;&lt;font style=&quot;font-size: 22px;&quot;&gt;11.5&lt;/font&gt;&lt;/b&gt;" style="text;html=1;align=center;verticalAlign=middle;whiteSpace=wrap;rounded=0;fontSize=22;" parent="adoEOclTotcm9w5F_WD9-5" vertex="1">
          <mxGeometry x="1725.103769918383" y="950.99" width="40.85503303536727" height="30" as="geometry" />
        </mxCell>
        <mxCell id="x82hmF_93pj6DDaHTNPA-65" value="&lt;b style=&quot;font-size: 22px;&quot;&gt;&lt;font style=&quot;font-size: 22px;&quot;&gt;10.1&lt;/font&gt;&lt;/b&gt;" style="text;html=1;align=center;verticalAlign=middle;whiteSpace=wrap;rounded=0;fontSize=22;" parent="adoEOclTotcm9w5F_WD9-5" vertex="1">
          <mxGeometry x="1522.1904391760588" y="511.83000000000004" width="40.85503303536727" height="30" as="geometry" />
        </mxCell>
        <mxCell id="x82hmF_93pj6DDaHTNPA-66" value="&lt;b style=&quot;font-size: 22px;&quot;&gt;&lt;font style=&quot;font-size: 22px;&quot;&gt;10.2&lt;/font&gt;&lt;/b&gt;" style="text;html=1;align=center;verticalAlign=middle;whiteSpace=wrap;rounded=0;fontSize=22;" parent="adoEOclTotcm9w5F_WD9-5" vertex="1">
          <mxGeometry x="1522.1904391760588" y="621.3700000000002" width="40.85503303536727" height="30" as="geometry" />
        </mxCell>
        <mxCell id="x82hmF_93pj6DDaHTNPA-68" value="&lt;b style=&quot;font-size: 22px;&quot;&gt;&lt;font style=&quot;font-size: 22px;&quot;&gt;11.4&lt;/font&gt;&lt;/b&gt;" style="text;html=1;align=center;verticalAlign=middle;whiteSpace=wrap;rounded=0;fontSize=22;" parent="adoEOclTotcm9w5F_WD9-5" vertex="1">
          <mxGeometry x="1725.103769918383" y="846.52" width="40.85503303536727" height="30" as="geometry" />
        </mxCell>
        <mxCell id="x82hmF_93pj6DDaHTNPA-86" value="&lt;b style=&quot;font-size: 22px;&quot;&gt;&lt;font style=&quot;font-size: 22px;&quot;&gt;11.3&lt;/font&gt;&lt;/b&gt;" style="text;html=1;align=center;verticalAlign=middle;whiteSpace=wrap;rounded=0;fontSize=22;" parent="adoEOclTotcm9w5F_WD9-5" vertex="1">
          <mxGeometry x="1729.5297318305477" y="720" width="40.85503303536727" height="30" as="geometry" />
        </mxCell>
        <mxCell id="x82hmF_93pj6DDaHTNPA-87" value="&lt;b style=&quot;font-size: 22px;&quot;&gt;&lt;font style=&quot;font-size: 22px;&quot;&gt;11.1&lt;/font&gt;&lt;/b&gt;" style="text;html=1;align=center;verticalAlign=middle;whiteSpace=wrap;rounded=0;fontSize=22;" parent="adoEOclTotcm9w5F_WD9-5" vertex="1">
          <mxGeometry x="1729.5297318305477" y="507.0200000000001" width="40.85503303536727" height="30" as="geometry" />
        </mxCell>
        <mxCell id="x82hmF_93pj6DDaHTNPA-88" value="&lt;b style=&quot;font-size: 22px;&quot;&gt;&lt;font style=&quot;font-size: 22px;&quot;&gt;11.2&lt;/font&gt;&lt;/b&gt;" style="text;html=1;align=center;verticalAlign=middle;whiteSpace=wrap;rounded=0;fontSize=22;" parent="adoEOclTotcm9w5F_WD9-5" vertex="1">
          <mxGeometry x="1729.5297318305477" y="612.0200000000002" width="40.85503303536727" height="30" as="geometry" />
        </mxCell>
        <mxCell id="x82hmF_93pj6DDaHTNPA-94" value="&lt;b style=&quot;font-size: 22px;&quot;&gt;&lt;font style=&quot;font-size: 22px;&quot;&gt;13.5&lt;/font&gt;&lt;/b&gt;" style="text;html=1;align=center;verticalAlign=middle;whiteSpace=wrap;rounded=0;fontSize=22;" parent="adoEOclTotcm9w5F_WD9-5" vertex="1">
          <mxGeometry x="2138.9312087057906" y="934.3099999999997" width="40.85503303536727" height="30" as="geometry" />
        </mxCell>
        <mxCell id="x82hmF_93pj6DDaHTNPA-95" value="&lt;b style=&quot;font-size: 22px;&quot;&gt;&lt;font style=&quot;font-size: 22px;&quot;&gt;13.4&lt;/font&gt;&lt;/b&gt;" style="text;html=1;align=center;verticalAlign=middle;whiteSpace=wrap;rounded=0;fontSize=22;" parent="adoEOclTotcm9w5F_WD9-5" vertex="1">
          <mxGeometry x="2138.9312087057906" y="826.3299999999999" width="40.85503303536727" height="30" as="geometry" />
        </mxCell>
        <mxCell id="kmCyuq3MmPs_hhdehJR9-1" value="&lt;b style=&quot;background-color: initial; font-size: 22px;&quot;&gt;&lt;font style=&quot;font-size: 22px;&quot;&gt;13.0&lt;/font&gt;&lt;/b&gt;" style="text;html=1;align=center;verticalAlign=middle;whiteSpace=wrap;rounded=0;fontSize=22;" parent="adoEOclTotcm9w5F_WD9-5" vertex="1">
          <mxGeometry x="2149.1449669646327" y="422.82000000000005" width="40.85503303536727" height="30" as="geometry" />
        </mxCell>
        <mxCell id="kmCyuq3MmPs_hhdehJR9-2" value="&lt;b style=&quot;font-size: 22px;&quot;&gt;&lt;font style=&quot;font-size: 22px;&quot;&gt;13.3&lt;/font&gt;&lt;/b&gt;" style="text;html=1;align=center;verticalAlign=middle;whiteSpace=wrap;rounded=0;fontSize=22;" parent="adoEOclTotcm9w5F_WD9-5" vertex="1">
          <mxGeometry x="2144.8892343567813" y="721.9599999999999" width="40.85503303536727" height="30" as="geometry" />
        </mxCell>
        <mxCell id="kmCyuq3MmPs_hhdehJR9-3" value="&lt;b style=&quot;font-size: 22px;&quot;&gt;&lt;font style=&quot;font-size: 22px;&quot;&gt;13.1&lt;/font&gt;&lt;/b&gt;" style="text;html=1;align=center;verticalAlign=middle;whiteSpace=wrap;rounded=0;fontSize=22;" parent="adoEOclTotcm9w5F_WD9-5" vertex="1">
          <mxGeometry x="2144.8892343567813" y="508.98" width="40.85503303536727" height="30" as="geometry" />
        </mxCell>
        <mxCell id="kmCyuq3MmPs_hhdehJR9-4" value="&lt;b style=&quot;font-size: 22px;&quot;&gt;&lt;font style=&quot;font-size: 22px;&quot;&gt;13.2&lt;/font&gt;&lt;/b&gt;" style="text;html=1;align=center;verticalAlign=middle;whiteSpace=wrap;rounded=0;fontSize=22;" parent="adoEOclTotcm9w5F_WD9-5" vertex="1">
          <mxGeometry x="2144.8892343567813" y="613.9800000000001" width="40.85503303536727" height="30" as="geometry" />
        </mxCell>
        <mxCell id="kmCyuq3MmPs_hhdehJR9-8" value="Historial" style="whiteSpace=wrap;html=1;rounded=1;shadow=1;strokeWidth=1;fontSize=22;align=center;fillColor=#f5f5f5;strokeColor=#666666;" parent="adoEOclTotcm9w5F_WD9-5" vertex="1">
          <mxGeometry x="1424.1383598911775" y="737.5" width="85.11465215701514" height="80" as="geometry" />
        </mxCell>
        <mxCell id="kmCyuq3MmPs_hhdehJR9-9" value="&lt;b style=&quot;font-size: 22px;&quot;&gt;&lt;font style=&quot;font-size: 22px;&quot;&gt;10.3&lt;/font&gt;&lt;/b&gt;" style="text;html=1;align=center;verticalAlign=middle;whiteSpace=wrap;rounded=0;fontSize=22;" parent="adoEOclTotcm9w5F_WD9-5" vertex="1">
          <mxGeometry x="1519.4667703070343" y="715.8000000000002" width="40.85503303536727" height="30" as="geometry" />
        </mxCell>
        <mxCell id="kmCyuq3MmPs_hhdehJR9-11" value="" style="shape=partialRectangle;whiteSpace=wrap;html=1;bottom=0;right=0;fillColor=none;rotation=-90;fontSize=22;" parent="adoEOclTotcm9w5F_WD9-5" vertex="1">
          <mxGeometry x="1314.388122813836" y="618.46" width="191.0857986785853" height="37.5" as="geometry" />
        </mxCell>
        <mxCell id="kmCyuq3MmPs_hhdehJR9-12" value="Modificar" style="whiteSpace=wrap;html=1;rounded=1;shadow=1;strokeWidth=1;fontSize=22;align=center;fillColor=#f5f5f5;strokeColor=#666666;" parent="adoEOclTotcm9w5F_WD9-5" vertex="1">
          <mxGeometry x="62.13369607462106" y="630.54" width="85.11465215701514" height="80" as="geometry" />
        </mxCell>
        <mxCell id="kmCyuq3MmPs_hhdehJR9-13" value="Agregar" style="whiteSpace=wrap;html=1;rounded=1;shadow=1;strokeWidth=1;fontSize=22;align=center;fillColor=#f5f5f5;strokeColor=#666666;" parent="adoEOclTotcm9w5F_WD9-5" vertex="1">
          <mxGeometry x="62.13369607462106" y="523.04" width="85.11465215701514" height="80" as="geometry" />
        </mxCell>
        <mxCell id="kmCyuq3MmPs_hhdehJR9-14" value="" style="shape=partialRectangle;whiteSpace=wrap;html=1;bottom=0;right=0;fillColor=none;rotation=-90;fontSize=22;" parent="adoEOclTotcm9w5F_WD9-5" vertex="1">
          <mxGeometry x="-13.618344345122424" y="564.29" width="122.56509910610181" height="37.5" as="geometry" />
        </mxCell>
        <mxCell id="kmCyuq3MmPs_hhdehJR9-15" value="" style="shape=partialRectangle;whiteSpace=wrap;html=1;bottom=0;right=0;fillColor=none;rotation=-90;fontSize=22;" parent="adoEOclTotcm9w5F_WD9-5" vertex="1">
          <mxGeometry x="24.472164788185033" y="508.98" width="47.24203653322969" height="37.5" as="geometry" />
        </mxCell>
        <mxCell id="kmCyuq3MmPs_hhdehJR9-16" value="&lt;b style=&quot;font-size: 22px;&quot;&gt;&lt;font style=&quot;font-size: 22px;&quot;&gt;4.1&lt;/font&gt;&lt;/b&gt;" style="text;html=1;align=center;verticalAlign=middle;whiteSpace=wrap;rounded=0;fontSize=22;" parent="adoEOclTotcm9w5F_WD9-5" vertex="1">
          <mxGeometry x="157.63233579479206" y="520.86" width="40.85503303536727" height="30" as="geometry" />
        </mxCell>
        <mxCell id="kmCyuq3MmPs_hhdehJR9-17" value="&lt;b style=&quot;font-size: 22px;&quot;&gt;&lt;font style=&quot;font-size: 22px;&quot;&gt;4.2&lt;/font&gt;&lt;/b&gt;" style="text;html=1;align=center;verticalAlign=middle;whiteSpace=wrap;rounded=0;fontSize=22;" parent="adoEOclTotcm9w5F_WD9-5" vertex="1">
          <mxGeometry x="157.63233579479206" y="636.8000000000001" width="40.85503303536727" height="30" as="geometry" />
        </mxCell>
        <mxCell id="kmCyuq3MmPs_hhdehJR9-18" value="Registrar Venta" style="whiteSpace=wrap;html=1;rounded=1;shadow=1;strokeWidth=1;fontSize=22;align=center;fillColor=#f5f5f5;strokeColor=#666666;" parent="adoEOclTotcm9w5F_WD9-5" vertex="1">
          <mxGeometry x="268.96230081616784" y="521.79" width="85.11465215701514" height="80" as="geometry" />
        </mxCell>
        <mxCell id="kmCyuq3MmPs_hhdehJR9-19" value="&lt;b style=&quot;font-size: 22px;&quot;&gt;&lt;font style=&quot;font-size: 22px;&quot;&gt;5.1&lt;/font&gt;&lt;/b&gt;" style="text;html=1;align=center;verticalAlign=middle;whiteSpace=wrap;rounded=0;fontSize=22;" parent="adoEOclTotcm9w5F_WD9-5" vertex="1">
          <mxGeometry x="351.5235134084726" y="512.73" width="40.85503303536727" height="30" as="geometry" />
        </mxCell>
        <mxCell id="kmCyuq3MmPs_hhdehJR9-20" value="" style="shape=partialRectangle;whiteSpace=wrap;html=1;bottom=0;right=0;fillColor=none;rotation=-90;fontSize=22;" parent="adoEOclTotcm9w5F_WD9-5" vertex="1">
          <mxGeometry x="231.51185386708121" y="508.08000000000004" width="47.24203653322969" height="37.5" as="geometry" />
        </mxCell>
        <mxCell id="L064Q9WMoQICBMQcYahb-13" value="&lt;b style=&quot;background-color: initial; font-size: 22px;&quot;&gt;&lt;font style=&quot;font-size: 22px;&quot;&gt;12.0&lt;/font&gt;&lt;/b&gt;" style="text;html=1;align=center;verticalAlign=middle;whiteSpace=wrap;rounded=0;fontSize=22;" parent="adoEOclTotcm9w5F_WD9-5" vertex="1">
          <mxGeometry x="1947.4232413525065" y="427.02" width="40.85503303536727" height="30" as="geometry" />
        </mxCell>
        <mxCell id="L064Q9WMoQICBMQcYahb-14" value="&lt;b style=&quot;background-color: initial;&quot;&gt;12.1&lt;/b&gt;" style="text;html=1;align=center;verticalAlign=middle;whiteSpace=wrap;rounded=0;fontSize=22;" parent="adoEOclTotcm9w5F_WD9-5" vertex="1">
          <mxGeometry x="1940.614069179945" y="513.1800000000001" width="40.85503303536727" height="30" as="geometry" />
        </mxCell>
        <mxCell id="L064Q9WMoQICBMQcYahb-15" value="&lt;b style=&quot;background-color: initial;&quot;&gt;12.2&lt;/b&gt;" style="text;html=1;align=center;verticalAlign=middle;whiteSpace=wrap;rounded=0;fontSize=22;" parent="adoEOclTotcm9w5F_WD9-5" vertex="1">
          <mxGeometry x="1940.614069179945" y="629.1200000000001" width="40.85503303536727" height="30" as="geometry" />
        </mxCell>
        <mxCell id="L064Q9WMoQICBMQcYahb-16" value="&lt;b style=&quot;background-color: initial;&quot;&gt;12.3&lt;/b&gt;" style="text;html=1;align=center;verticalAlign=middle;whiteSpace=wrap;rounded=0;fontSize=22;" parent="adoEOclTotcm9w5F_WD9-5" vertex="1">
          <mxGeometry x="1940.614069179945" y="738.6600000000001" width="40.85503303536727" height="30" as="geometry" />
        </mxCell>
        <mxCell id="L064Q9WMoQICBMQcYahb-17" value="&lt;b style=&quot;font-size: 22px;&quot;&gt;&lt;font style=&quot;font-size: 22px;&quot;&gt;8.0&lt;/font&gt;&lt;/b&gt;" style="text;html=1;align=center;verticalAlign=middle;whiteSpace=wrap;rounded=0;fontSize=22;" parent="adoEOclTotcm9w5F_WD9-5" vertex="1">
          <mxGeometry x="1082.6583754372325" y="419.11" width="40.85503303536727" height="30" as="geometry" />
        </mxCell>
        <mxCell id="L064Q9WMoQICBMQcYahb-18" value="&lt;b style=&quot;font-size: 22px;&quot;&gt;&lt;font style=&quot;font-size: 22px;&quot;&gt;8.1&lt;/font&gt;&lt;/b&gt;" style="text;html=1;align=center;verticalAlign=middle;whiteSpace=wrap;rounded=0;fontSize=22;" parent="adoEOclTotcm9w5F_WD9-5" vertex="1">
          <mxGeometry x="1093.8935095219588" y="504.97" width="40.85503303536727" height="30" as="geometry" />
        </mxCell>
        <mxCell id="L064Q9WMoQICBMQcYahb-19" value="&lt;b style=&quot;font-size: 22px;&quot;&gt;&lt;font style=&quot;font-size: 22px;&quot;&gt;8.2&lt;/font&gt;&lt;/b&gt;" style="text;html=1;align=center;verticalAlign=middle;whiteSpace=wrap;rounded=0;fontSize=22;" parent="adoEOclTotcm9w5F_WD9-5" vertex="1">
          <mxGeometry x="1093.8935095219588" y="620.9100000000001" width="40.85503303536727" height="30" as="geometry" />
        </mxCell>
        <mxCell id="ayTLZbnIlNJXaFGoyUxJ-2" value="&lt;font style=&quot;font-size: 62px;&quot;&gt;Diagrama HIPO - CamiCandy&lt;/font&gt;" style="text;html=1;align=center;verticalAlign=middle;whiteSpace=wrap;rounded=0;fontStyle=1;fontSize=62;" parent="1" vertex="1">
          <mxGeometry x="160" y="190" width="1920" height="30" as="geometry" />
        </mxCell>
      </root>
    </mxGraphModel>
  </diagram>
</mxfile>
